<?xml version="1.0" encoding="UTF-8" standalone="no"?>
<!-- Generator: Adobe Illustrator 16.0.0, SVG Export Plug-In . SVG Version: 6.00 Build 0)  -->

<svg
   xmlns:dc="http://purl.org/dc/elements/1.1/"
   xmlns:cc="http://creativecommons.org/ns#"
   xmlns:rdf="http://www.w3.org/1999/02/22-rdf-syntax-ns#"
   xmlns:svg="http://www.w3.org/2000/svg"
   xmlns="http://www.w3.org/2000/svg"
   xmlns:sodipodi="http://sodipodi.sourceforge.net/DTD/sodipodi-0.dtd"
   xmlns:inkscape="http://www.inkscape.org/namespaces/inkscape"
   version="1.1"
   x="0px"
   y="0px"
   width="24px"
   height="24px"
   viewBox="0 0 24 24"
   style="enable-background:new 0 0 24 24;"
   xml:space="preserve"
   id="svg2"
   inkscape:version="0.48.4 r9939"
   sodipodi:docname="VisualEditor_-_Icon_-_Search-big.svg"><metadata
     id="metadata11"><rdf:RDF><cc:Work
         rdf:about=""><dc:format>image/svg+xml</dc:format><dc:type
           rdf:resource="http://purl.org/dc/dcmitype/StillImage" /><dc:title></dc:title></cc:Work></rdf:RDF></metadata><defs
     id="defs9" /><sodipodi:namedview
     pagecolor="#ffffff"
     bordercolor="#666666"
     borderopacity="1"
     objecttolerance="10"
     gridtolerance="10"
     guidetolerance="10"
     inkscape:pageopacity="0"
     inkscape:pageshadow="2"
     inkscape:window-width="1366"
     inkscape:window-height="691"
     id="namedview7"
     showgrid="false"
     inkscape:zoom="9.8333333"
     inkscape:cx="12"
     inkscape:cy="12"
     inkscape:window-x="0"
     inkscape:window-y="24"
     inkscape:window-maximized="1"
     inkscape:current-layer="svg2" /><g
     id="Icons"
     style="opacity:1;fill:#ffffff"><path
       id="search-big"
       d="M18.853,17.438l-3.604-3.604c-0.075-0.075-0.166-0.127-0.267-0.156C15.621,12.781,16,11.686,16,10.5   C16,7.463,13.537,5,10.5,5S5,7.463,5,10.5S7.463,16,10.5,16c1.186,0,2.281-0.379,3.18-1.018c0.028,0.101,0.08,0.191,0.155,0.267   l3.604,3.604c0.301,0.301,0.858,0.227,1.249-0.165C19.079,18.297,19.153,17.739,18.853,17.438z M10.5,14C8.568,14,7,12.432,7,10.5   S8.568,7,10.5,7S14,8.568,14,10.5S12.432,14,10.5,14z"
       style="fill:#ffffff" /></g><g
     id="Guides" /></svg>